<?xml version="1.0" encoding="utf-8"?>
<!-- Svg Vector Icons : http://www.onlinewebfonts.com/icon -->
<!DOCTYPE svg PUBLIC "-//W3C//DTD SVG 1.1//EN" "http://www.w3.org/Graphics/SVG/1.1/DTD/svg11.dtd">
<svg version="1.1" xmlns="http://www.w3.org/2000/svg" xmlns:xlink="http://www.w3.org/1999/xlink" x="0px" y="0px" viewBox="0 0 256 256" enable-background="new 0 0 256 256" xml:space="preserve">
<metadata> Svg Vector Icons : http://www.onlinewebfonts.com/icon </metadata>
<g><g><g><path fill="#0032A0"  d="M119.4,10.2c-36.3,2.6-69.5,22-89.8,52.5C16.6,82.1,10,104.1,10,128c0,26.8,8.1,50.8,24.6,72.3c4.3,5.6,13.3,14.9,18.8,19.3c39.1,31.5,93.4,35.1,136.2,9.1c15.4-9.4,29.8-23.8,39.2-39.2c21.5-35.4,23.1-79.4,4-115.9c-13.4-25.7-35.1-45.3-62.2-55.8C155.3,11.9,135.9,9,119.4,10.2z M144.6,91v24.3l27.4,0.1l27.3,0.1v14v14l-27.3,0.1l-27.4,0.1l-0.1,24.4l-0.1,24.4l-16.8,0.1l-16.8,0.1v-24.5v-24.5H83.3H55.8l0.1-14.1l0.1-14.1l27.4-0.1l27.3-0.1V91V66.7h16.9h16.9L144.6,91L144.6,91z"/></g></g></g>
</svg>