<?xml version="1.0" encoding="utf-8"?>
<!-- Svg Vector Icons : http://www.onlinewebfonts.com/icon -->
<!DOCTYPE svg PUBLIC "-//W3C//DTD SVG 1.1//EN" "http://www.w3.org/Graphics/SVG/1.1/DTD/svg11.dtd">
<svg version="1.1" xmlns="http://www.w3.org/2000/svg" xmlns:xlink="http://www.w3.org/1999/xlink" x="0px" y="0px" viewBox="0 0 256 256" enable-background="new 0 0 256 256" xml:space="preserve">
<metadata> Svg Vector Icons : http://www.onlinewebfonts.com/icon </metadata>
<g><g><g><path fill="#000000" d="M61.7,11l-1.2,0.9v104v104l1.2,0.9l1.3,1h76.9h76.9l1.1-1.2l1.2-1.1V116V12.3l-1.2-1.1l-1.1-1.2h-76.9H63L61.7,11z M211.5,116v98.4h-71.7H68.1V116V17.6h71.7h71.7V116z"/><path fill="#000000" d="M167.6,52l-1.1,0.9v47.5v47.5l1.3,1.1c1.3,1.1,1.3,1.1,13.1,1.1c6.5,0,12.3-0.2,12.9-0.5c0.7-0.2,1.4-0.9,1.7-1.4c0.3-0.6,0.5-16,0.5-48V53.3l-1-1.1c-1-1.1-1-1.1-13.6-1.1C169.6,51.1,168.6,51.1,167.6,52z M188.4,100.6v42.1l-7.2-0.1l-7.2-0.1l-0.1-41.9l-0.1-41.9h7.3h7.3V100.6z"/><path fill="#000000" d="M127.2,79.4c-0.6,0.2-1.2,0.8-1.5,1.4c-0.4,0.6-0.5,11.6-0.5,34.2v33.3l1.2,0.9c1.2,0.9,1.8,1,13,1c11.5,0,11.7,0,12.9-1.1l1.2-1l0-33.1c0-23.5-0.1-33.4-0.5-34.1c-0.3-0.6-1-1.2-1.7-1.4C149.8,78.8,128.6,78.8,127.2,79.4z M145.9,114.5v28.1h-6.6h-6.6v-28.1V86.5h6.6h6.6V114.5z"/><path fill="#000000" d="M85.7,95.9c-0.6,0.2-1.2,0.9-1.5,1.4c-0.4,0.6-0.5,9.2-0.5,26v25l1.2,0.9c1.2,0.9,1.8,1,12.6,1h11.3l1.4-1.4l1.4-1.4v-24.6V98.2l-1.4-1.4l-1.4-1.4l-11,0C91.7,95.5,86.2,95.7,85.7,95.9z M103.8,122.9l0.1,19.7h-6.4h-6.4v-19.8v-19.9l6.3,0.1l6.2,0.1L103.8,122.9z"/><path fill="#000000" d="M83.4,174.5c-0.8,0.7-1.2,1.7-1.2,2.6s0.4,1.9,1.2,2.6l1.1,1.2h54.8c40.8,0,55.1-0.1,55.8-0.6c2.5-1.3,2.9-3.9,1-5.8l-1.1-1.2h-55.3H84.5L83.4,174.5z"/><path fill="#000000" d="M37.9,35.6l-1,1.1v103.5v103.5l1.2,1.1l1.1,1.2h77.2h77.2l1.2-1.2c1-1,1.1-1.5,0.9-2.9c-0.1-0.9-0.7-2.1-1.3-2.5c-0.9-0.8-5.2-0.8-75.5-0.8H44.5l-0.1-101.1L44.2,36.3l-1.1-0.9C41.6,34.2,39.2,34.3,37.9,35.6z"/></g></g></g>
</svg>